<?xml version="1.0" encoding="UTF-8"?>
<svg width="41px" height="56px" viewBox="0 0 41 56" version="1.1" xmlns="http://www.w3.org/2000/svg" xmlns:xlink="http://www.w3.org/1999/xlink">
    <!-- Generator: Sketch 64 (93537) - https://sketch.com -->
    <title>Combined Shape</title>
    <desc>Created with Sketch.</desc>
    <g id="Playground" stroke="none" stroke-width="1" fill="none" fill-rule="evenodd">
        <g id="Portfolio-Copy-9" transform="translate(-357.000000, -36.000000)" fill="#000000">
            <g id="Logo/On-Dark" transform="translate(357.000000, 36.000000)">
                <g id="Group-12">
                    <path d="M9,9 L9,9.27512627 C9,9.73925512 9.18437447,10.1843745 9.51256313,10.5125631 L9.51256313,10.5125631 L15,16 L15,48 L6,56 L6,24 L0,18 L9,9 Z M41,0 L34,7 L34,41 L27,47.999 L41,48 L33,56 L19,56 L25.999,48.999 L26,24.7082039 C26,24.1450274 25.8852681,23.5886183 25.6637547,23.0726548 L25.5623059,22.854102 C24.5383137,20.8061175 22.0479845,19.9760078 20,21 L20,21 L32,9 L9,9 L18,0 L41,0 Z M25,25 L25,38 L16,46 L16,33 L25,25 Z" id="Combined-Shape"></path>
                </g>
            </g>
        </g>
    </g>
</svg>